<svg width="100" height="104" viewBox="0 0 100 104" fill="none" xmlns="http://www.w3.org/2000/svg">
<g filter="url(#filter0_d_1692_4592)">
<rect x="10" y="8" width="80" height="84" rx="10" fill="#7B6EF2"/>
</g>
<path d="M47.1121 65.75C47.4047 66.282 47.8255 66.7238 48.3322 67.031C48.8389 67.3381 49.4137 67.4998 49.9988 67.4998C50.5839 67.4998 51.1587 67.3381 51.6654 67.031C52.1721 66.7238 52.5929 66.282 52.8854 65.75M35.4354 55.8205C35.2177 56.0711 35.074 56.3827 35.0219 56.7174C34.9697 57.0521 35.0113 57.3956 35.1416 57.7059C35.2719 58.0163 35.4853 58.2802 35.7559 58.4656C36.0264 58.6509 36.3424 58.7498 36.6654 58.75H63.3321C63.6551 58.7501 63.9712 58.6517 64.2419 58.4667C64.5126 58.2817 64.7263 58.0181 64.8569 57.7079C64.9876 57.3977 65.0296 57.0544 64.9778 56.7196C64.9261 56.3849 64.7828 56.0731 64.5654 55.8222C62.3488 53.423 59.9988 50.8733 59.9988 43C59.9988 40.2152 58.9452 37.5445 57.0699 35.5754C55.1945 33.6062 52.6509 32.5 49.9988 32.5C47.3466 32.5 44.8031 33.6062 42.9277 35.5754C41.0524 37.5445 39.9988 40.2152 39.9988 43C39.9988 50.8733 37.6471 53.423 35.4354 55.8205Z" stroke="white" stroke-width="2" stroke-linecap="round" stroke-linejoin="round"/>
<defs>
<filter id="filter0_d_1692_4592" x="0" y="0" width="100" height="104" filterUnits="userSpaceOnUse" color-interpolation-filters="sRGB">
<feFlood flood-opacity="0" result="BackgroundImageFix"/>
<feColorMatrix in="SourceAlpha" type="matrix" values="0 0 0 0 0 0 0 0 0 0 0 0 0 0 0 0 0 0 127 0" result="hardAlpha"/>
<feOffset dy="2"/>
<feGaussianBlur stdDeviation="5"/>
<feComposite in2="hardAlpha" operator="out"/>
<feColorMatrix type="matrix" values="0 0 0 0 0 0 0 0 0 0 0 0 0 0 0 0 0 0 0.25 0"/>
<feBlend mode="normal" in2="BackgroundImageFix" result="effect1_dropShadow_1692_4592"/>
<feBlend mode="normal" in="SourceGraphic" in2="effect1_dropShadow_1692_4592" result="shape"/>
</filter>
</defs>
</svg>
