<svg width="83" height="76" viewBox="0 0 83 76" fill="none" xmlns="http://www.w3.org/2000/svg">
<path d="M41.5518 5.10547V75.5879C41.7045 75.5898 41.8575 75.5947 42.0107 75.5947C61.4772 75.5947 77.2578 59.8134 77.2578 40.3467C77.2576 20.8802 61.477 5.09961 42.0107 5.09961C41.8575 5.09961 41.7045 5.10352 41.5518 5.10547Z" fill="#E4D1F5"/>
<ellipse cx="43.0327" cy="44.8602" rx="25.6342" ry="25.6346" fill="#2C084A"/>
<path d="M60.165 41.5293C60.3192 43.8664 59.6264 46.1964 58.232 48.0783C50.1787 58.9471 49.7542 58.9301 44.2683 58.7108C38.136 58.4657 37.7043 58.4281 31.0116 46.896C29.8928 44.9682 29.4499 42.7007 29.7676 40.4945C35.2624 2.33205 38.7414 0.307896 46.5969 0.621912C54.4073 0.934127 57.9475 7.91874 60.165 41.5293Z" fill="#7E1AD1" fill-opacity="0.9"/>
<path d="M49.8172 32.5701C51.5546 34.141 52.6787 36.2963 52.9871 38.6181C54.7686 52.0276 54.452 52.3109 50.3601 55.9715C45.7861 60.0635 45.45 60.3369 32.6183 56.7141C30.4732 56.1085 28.5771 54.7885 27.2697 52.9831C4.65568 21.7557 5.7451 17.8809 11.6044 12.6391C17.4301 7.42738 24.8332 9.97886 49.8172 32.5701Z" fill="#B558F9" fill-opacity="0.8"/>
<ellipse cx="4.11545" cy="48.9797" rx="1.37326" ry="1.37328" fill="#8118D2"/>
<ellipse cx="43.9482" cy="74.1572" rx="1.83102" ry="1.83104" fill="#8118D2"/>
<ellipse cx="78.7323" cy="50.3535" rx="3.66203" ry="3.66208" fill="#8118D2"/>
<path d="M70.4297 35.834L62.542 41.6885L45.9258 49.8008L45.8193 49.5869L42.8984 51.2197L60.3643 69.5781C67.9777 64.4465 73.0233 55.4735 73.0234 45.2617C73.0234 41.7681 72.4334 38.4188 71.3516 35.3193L70.4297 35.834Z" fill="url(#paint0_linear_1652_3617)" fill-opacity="0.75"/>
<path d="M71.0152 35.4784L62.4518 41.7555L45.9668 49.7772L45.5256 48.975L60.9076 38.9478L71.0152 35.4784Z" fill="white" fill-opacity="0.86"/>
<path d="M60.161 69.7152L52.2408 62.6439L40.9671 48.1868L41.66 47.5884L54.666 60.5497L60.161 69.7152Z" fill="white"/>
<ellipse cx="43.0307" cy="49.438" rx="4.57754" ry="4.5776" fill="white"/>
<defs>
<linearGradient id="paint0_linear_1652_3617" x1="58.5868" y1="65.9161" x2="60.4178" y2="41.1977" gradientUnits="userSpaceOnUse">
<stop stop-color="white"/>
<stop offset="1" stop-color="#FBF9FE" stop-opacity="0.39"/>
</linearGradient>
</defs>
</svg>
